[img]http://img26.imageshack.us/img26/5561/happyfeeta.jpg[/img]
[code]
Happy Feet 2 2011 DVDSCR XviD AC3-26K

Imdb: 
http://www.imdb.com/title/tt1402488/

Plot:
Mumble's son, Erik, is struggling to realize his talents in the Emperor Penguin world. Meanwhile, Mumble 

and his family and friends discover a new threat their home -- one that will take everyone working 

together to save them.

Sources:
DVDr NSTC THNXS!! thnxs for hope for giving the files much thnxs bro!

Notes:
ENJOY VERY NICE DVDSCR CROPPED OUT BLACK BORDERS AND ENCODED WITH FILTERS ENJOY :p
AUDIO IS 6 CHANNELS SO ENJOY !

Greetz:
Xtreme 

Encode|FYA|ILLUMANTI|CM8|RX|VISION|HDSCENE|NIGHTMAREZ|xTriLL|DTRG|CRYS|REMIXHD|BIDA|RX|REFILL|INSPiRAL|S

IC|ZOMBIESZ|HOPE
To all the people who have helped me :P you know who you are

Anything to offer email us @: 26k@hushmail.me

Video
ID                                       : 0
Format                                   : MPEG-4 Visual
Format profile                           : Advanced Simple@L5
Format settings, BVOP                    : 1
Format settings, QPel                    : No
Format settings, GMC                     : No warppoints
Format settings, Matrix                  : Custom
Codec ID                                 : XVID
Codec ID/Hint                            : XviD
Duration                                 : 1h 40mn
Bit rate                                 : 2 192 Kbps
Width                                    : 720 pixels
Height                                   : 320 pixels
Display aspect ratio                     : 2.25:1
Frame rate                               : 23.976 fps
Color space                              : YUV
Chroma subsampling                       : 4:2:0
Bit depth                                : 8 bits
Scan type                                : Progressive
Compression mode                         : Lossy
Bits/(Pixel*Frame)                       : 0.397
Stream size                              : 1.54 GiB (83%)
Writing library                          : XviD 64

Audio
ID                                       : 1
Format                                   : AC-3
Format/Info                              : Audio Coding 3
Mode extension                           : CM (complete main)
Codec ID                                 : 2000
Duration                                 : 1h 40mn
Bit rate mode                            : Constant
Bit rate                                 : 448 Kbps
Channel(s)                               : 6 channels
Channel positions                        : Front: L C R, Side: L R, LFE
Sampling rate                            : 48.0 KHz
Bit depth                                : 16 bits
Compression mode                         : Lossy
Delay relative to video                  : 33ms
Stream size                              : 322 MiB (17%)
Alignment                                : Split accross interleaves
Interleave, duration                     : 96 ms (2.30 video frames)
Interleave, preload duration             : 96 ms
Language                                 : English

[/code]
Screens:
[img]http://img407.imageshack.us/img407/7900/vlcsnap2012012013h58m36.png[/img]
[img]http://img829.imageshack.us/img829/8533/vlcsnap2012012013h58m43.png[/img]
[img]http://img705.imageshack.us/img705/3766/vlcsnap2012012013h58m53.png[/img]
[img]http://img263.imageshack.us/img263/2738/vlcsnap2012012013h58m59.png[/img]


[img]http://img851.imageshack.us/img851/5503/26ks.jpg[/img]
Thank you smallz for banner!